<?xml version="1.0" standalone="no"?>
<!DOCTYPE svg PUBLIC "-//W3C//DTD SVG 20010904//EN"
 "http://www.w3.org/TR/2001/REC-SVG-20010904/DTD/svg10.dtd">
<svg version="1.0" xmlns="http://www.w3.org/2000/svg"
 width="512.000000pt" height="512.000000pt" viewBox="0 0 512.000000 512.000000"
 preserveAspectRatio="xMidYMid meet">
<metadata>
Created by potrace 1.11, written by Peter Selinger 2001-2013
</metadata>
<g transform="translate(0.000000,512.000000) scale(0.100000,-0.100000)"
fill="#000000" stroke="none">
<path d="M616 3872 c-65 -19 -125 -81 -148 -152 -15 -47 -17 -109 -18 -527 0
-519 -2 -532 -59 -566 -15 -9 -42 -18 -60 -19 l-31 -2 0 -77 0 -77 46 -11 c50
-13 74 -32 92 -73 8 -20 11 -163 12 -501 0 -500 3 -532 48 -599 51 -76 114
-100 275 -102 l127 -2 0 68 0 68 -60 0 c-73 0 -122 19 -147 56 -17 26 -18 61
-19 490 -1 295 -6 480 -13 513 -12 58 -56 151 -71 151 -6 0 -10 7 -10 15 0 8
4 15 9 15 17 0 69 123 77 178 3 29 7 254 8 500 1 445 1 447 24 483 25 41 49
49 143 49 l59 0 0 71 0 70 -117 -2 c-65 -2 -140 -9 -167 -17z"/>
<path d="M4150 3820 l0 -70 68 0 c75 0 105 -12 136 -53 20 -27 20 -40 21 -495
2 -401 4 -476 18 -531 16 -57 49 -121 69 -129 13 -6 9 -18 -16 -47 -14 -16
-35 -60 -47 -99 -23 -70 -23 -80 -24 -542 -1 -429 -2 -473 -18 -497 -16 -25
-67 -59 -84 -56 -4 1 -34 1 -65 0 l-58 -1 0 -69 0 -69 129 3 c102 3 139 8 173
23 74 32 112 82 137 176 6 24 10 222 11 509 0 525 0 521 69 556 37 20 42 21
65 21 10 0 14 19 15 79 1 78 1 79 -24 79 -38 0 -82 21 -102 51 -20 29 -21 48
-25 697 l-3 340 -30 59 c-52 103 -117 131 -303 134 l-112 1 0 -70z"/>
<path d="M1868 3695 c-2 -1 -25 -5 -53 -9 -82 -9 -183 -66 -255 -143 -58 -62
-160 -206 -160 -227 0 -5 -6 -17 -13 -25 -7 -9 -19 -34 -26 -56 -8 -22 -18
-51 -24 -65 -6 -14 -11 -30 -12 -36 -2 -6 -10 -36 -18 -65 -9 -30 -18 -70 -21
-89 -3 -19 -8 -46 -11 -60 -20 -94 -29 -509 -13 -650 35 -309 101 -483 233
-616 128 -129 276 -173 460 -139 216 41 370 250 409 555 7 55 8 252 1 300 -18
133 -32 182 -71 265 -44 91 -95 153 -169 204 -95 64 -128 74 -235 75 -83 0
-102 -4 -152 -27 -56 -27 -146 -106 -201 -177 l-27 -35 6 60 c3 33 8 78 11
100 3 22 7 49 8 60 1 11 5 38 10 60 4 22 9 47 10 56 2 9 13 49 25 90 71 240
170 365 299 376 97 9 155 -35 191 -147 12 -36 20 -70 19 -76 -1 -5 -1 -21 0
-36 l1 -28 130 0 c150 0 141 -9 115 114 -38 179 -158 333 -289 371 -46 14
-170 27 -178 20z m74 -1005 c118 -61 170 -204 170 -466 -1 -290 -52 -434 -178
-494 -154 -75 -306 41 -375 285 -30 107 -34 363 -6 438 37 103 90 176 163 226
65 44 155 48 226 11z"/>
<path d="M3269 3495 c-135 -263 -209 -408 -217 -420 -4 -5 -7 -16 -8 -23 -1
-7 -7 -19 -13 -26 -6 -7 -55 -100 -110 -207 -55 -107 -129 -250 -165 -319
-140 -268 -136 -258 -136 -375 l0 -105 375 0 375 0 1 -67 c1 -38 1 -155 1
-260 l0 -193 129 0 c127 0 129 0 130 23 0 12 1 129 1 260 l1 237 118 0 119 0
0 108 0 107 -118 0 -119 -1 0 711 c-1 390 -2 720 -2 732 -1 22 -3 22 -130 20
l-129 -1 -103 -201z m101 -1210 l-5 -50 -247 -1 c-137 0 -248 1 -248 3 0 2 20
40 44 85 23 46 110 214 191 373 81 160 173 339 204 398 l56 108 5 -433 c3
-238 3 -455 0 -483z"/>
</g>
</svg>
